# xmcd
#
# Track frame offsets: 
#        150
#        14070
#        25762
#        34817
#        56987
#        69872
#        80475
#        91215
#        100665
#        111062
#        124197
#        137950
#        147042
#        170740
#        179207
#        192657
#        200535
#        211977
#        223152
#        234337
#
# Disc length: 3293 seconds
#
# Revision: 2
# Processed by: cddbd v1.5.1PL0 Copyright (c) Steve Scherf et al.
# Submitted via: ExactAudioCopy v0.95b2
#
DISCID=300cdb14
DTITLE=Etta Baker - One Dime Blues
DYEAR=1991
DGENRE=Blues
TTITLE0=Never Let Your Deal Go Down
TTITLE1=One-Dime Blues
TTITLE2=Knoxville Rag
TTITLE3=Broken Hearted Blues
TTITLE4=Lost John
TTITLE5=Dew Drop
TTITLE6=Going Down The Road Feeling Bad
TTITLE7=Near The Cross I Watch And Pray
TTITLE8=Spanish Fandango
TTITLE9=Round My Back Door Selling Coal
TTITLE10=But On The Other Hand Baby
TTITLE11=Crow Jane
TTITLE12=John Henry
TTITLE13=Alabama Wagonwheel
TTITLE14=Bully Of The Town
TTITLE15=Going To The Racetrack
TTITLE16=Police Dog Blues
TTITLE17=Marching Jaybird
TTITLE18=Railroad Bill
TTITLE19=Carolina Breakdown
EXTD=
EXTT0=
EXTT1=
EXTT2=
EXTT3=
EXTT4=
EXTT5=
EXTT6=
EXTT7=
EXTT8=
EXTT9=
EXTT10=
EXTT11=
EXTT12=
EXTT13=
EXTT14=
EXTT15=
EXTT16=
EXTT17=
EXTT18=
EXTT19=
PLAYORDER=
